<svg xmlns="http://www.w3.org/2000/svg" viewBox="0 0 900 620" role="img" aria-label="Health">
<defs><linearGradient id="g" x1="0" x2="1" y1="0" y2="1"><stop offset="0" stop-color="#0f8b8d"/><stop offset="1" stop-color="#54c6a0"/></linearGradient><filter id="s" x="-20%" y="-20%" width="140%" height="140%"><feDropShadow dx="0" dy="20" stdDeviation="25" flood-color="#10231c" flood-opacity=".18"/></filter></defs>
<rect width="900" height="620" rx="44" fill="#f8fbf7"/>
<circle cx="750" cy="110" r="150" fill="#0f8b8d" opacity=".13"/>
<circle cx="120" cy="510" r="190" fill="#54c6a0" opacity=".10"/>
<path d="M80 450 C220 330, 300 420, 420 295 S660 240, 820 340" fill="none" stroke="url(#g)" stroke-width="38" stroke-linecap="round" opacity=".22"/>
<g filter="url(#s)">
<rect x="105" y="135" width="690" height="340" rx="38" fill="white"/>
<rect x="145" y="175" width="260" height="210" rx="28" fill="url(#g)" opacity=".9"/>
<path d="M272 210v138M203 279h138" stroke="white" stroke-width="48" stroke-linecap="round"/><circle cx="272" cy="279" r="118" fill="none" stroke="white" stroke-width="18" opacity=".55"/>
<text x="450" y="235" fill="#16392f" font-family="Inter,Arial,sans-serif" font-size="42" font-weight="800">Health</text>
<text x="450" y="285" fill="#52665f" font-family="Inter,Arial,sans-serif" font-size="22">Primary health, eye care and</text>
<text x="450" y="322" fill="#52665f" font-family="Inter,Arial,sans-serif" font-size="22">community health outreach</text>
<rect x="450" y="365" width="230" height="54" rx="27" fill="#0f8b8d" opacity=".14"/>
<text x="480" y="400" fill="#0f8b8d" font-family="Inter,Arial,sans-serif" font-size="18" font-weight="700">BCT Programme Area</text>
</g></svg>