<svg xmlns="http://www.w3.org/2000/svg" width="900" height="520" viewBox="0 0 900 520"><defs><linearGradient id="g" x1="0" x2="1" y1="0" y2="1"><stop offset="0" stop-color="#394c83"/><stop offset="1" stop-color="#0f5132"/></linearGradient><filter id="s"><feDropShadow dx="0" dy="14" stdDeviation="18" flood-opacity=".18"/></filter></defs><rect width="900" height="520" rx="34" fill="url(#g)"/><circle cx="760" cy="100" r="90" fill="rgba(255,255,255,.25)"/><circle cx="120" cy="420" r="120" fill="rgba(255,255,255,.18)"/><g filter="url(#s)"><rect x="95" y="105" width="710" height="305" rx="30" fill="rgba(255,255,255,.82)"/><path d="M170 335 C250 250 310 280 385 205 C465 125 550 220 610 160 C675 95 725 158 765 115" fill="none" stroke="#82284b" stroke-width="16" stroke-linecap="round"/><circle cx="228" cy="260" r="42" fill="#f2b84b"/><circle cx="412" cy="210" r="42" fill="#f2b84b" opacity=".85"/><circle cx="604" cy="170" r="42" fill="#f2b84b" opacity=".7"/><rect x="155" y="345" width="170" height="18" rx="9" fill="#82284b" opacity=".35"/><rect x="365" y="345" width="170" height="18" rx="9" fill="#82284b" opacity=".35"/><rect x="575" y="345" width="170" height="18" rx="9" fill="#82284b" opacity=".35"/></g><text x="450" y="470" text-anchor="middle" font-family="Arial" font-weight="800" font-size="30" fill="white">Community Development</text></svg>